<svg width="24" height="24" fill="#FFFFFF" xmlns="http://www.w3.org/2000/svg"><path fill-rule="evenodd" clip-rule="evenodd" d="M16.005 5.217a5.001 5.001 0 004.31 4.737l-1.152 6.133H5.837L4.03 6.471 3.533 5H1V3h3.967l.75 2.217h10.288zM9.5 19.152C9.5 20.172 8.66 21 7.625 21c-1.036 0-1.875-.827-1.875-1.848 0-1.02.84-1.848 1.875-1.848 1.036 0 1.875.827 1.875 1.848zM16.625 21c1.036 0 1.875-.827 1.875-1.848 0-1.02-.84-1.848-1.875-1.848-1.036 0-1.875.827-1.875 1.848 0 1.02.84 1.848 1.875 1.848z"/><path d="M21 8a3 3 0 100-6 3 3 0 000 6z" fill="#EC3730"/></svg>