<svg xmlns="http://www.w3.org/2000/svg" viewBox="0 0 429.49 36.96" width="250"><defs><style>.cls-1{fill:#231f20}</style></defs><g id="Calque_2" data-name="Calque 2"><g id="Layer_1" data-name="Layer 1"><path id="_Tracé_" data-name="&lt;Tracé&gt;" class="cls-1" d="M421.53.1h7.96v36.09h-7.96z"/><path id="_Tracé_transparent_" data-name="&lt;Tracé transparent&gt;" class="cls-1" d="M109.38 16.67h-14V7h14c3.33 0 5.24 1.75 5.24 4.8v.15c0 3-1.91 4.76-5.24 4.76m-14 6.85h13l7.24 12.57h9.18l-7.93-13.75.76-.38c3.57-1.78 5.38-5.14 5.38-10v-.51C123 3.75 118.59 0 109.55 0H87.44v36.09h8z"/><path id="_Tracé_2" data-name="&lt;Tracé&gt;" class="cls-1" d="M375.22 0v16.46c0 5.35.4 10.53 5.21 15.11A19.57 19.57 0 00394.06 37a19.32 19.32 0 0014.16-6c4.33-4.47 4.68-9.22 4.68-14.52V0h-8.16v15.72c0 3.48 0 7.08-2.1 9.61a11.72 11.72 0 01-8.59 3.87 11.33 11.33 0 01-8.8-4.13c-1.9-2.6-1.89-6.12-1.88-9.54V0z"/><path id="_Tracé_transparent_2" data-name="&lt;Tracé transparent&gt;" class="cls-1" d="M29 25c0 2.82-1.71 4.5-4.58 4.5H7.85v-9h16.57c3 0 4.58 1.53 4.58 4.3zM7.85 6.35H23.6c2.66 0 4.13 1.35 4.13 3.79v.19c0 2.44-1.51 3.84-4.13 3.84H7.85zm23.27 10l-1.3-.41 1.29-.44a6.86 6.86 0 004.43-6.75v-.69c0-5.28-3.52-8-10.45-8H0V36h25.32c8 0 11.89-3.31 11.89-10.13v-.69c0-6.23-4.26-8.24-6.1-8.82"/><path id="_Tracé_transparent_3" data-name="&lt;Tracé transparent&gt;" class="cls-1" d="M61 6.59l6.6 15.54H54.33l6.6-15.54v.07zm0-6.5h-5L40.64 36h7.89l2.88-6.81h19.1L73.38 36h7.89L65.95.09z"/><path id="_Tracé_transparent_4" data-name="&lt;Tracé transparent&gt;" class="cls-1" d="M193 6.69l6.6 15.54h-13.27l6.6-15.54v.07zm0-6.5h-5l-15.32 35.9h7.89l2.87-6.81h19.11l2.88 6.81h7.89L198 .19z"/><g id="_Groupe_" data-name="&lt;Groupe&gt;"><path id="_Tracé_transparent_5" data-name="&lt;Tracé transparent&gt;" class="cls-1" d="M241.39 16.77h-14V7.05h14c3.33 0 5.24 1.75 5.24 4.8V12c0 3-1.91 4.76-5.24 4.76m-14 6.85h13l7.24 12.57h9.18l-7.93-13.75.76-.38c3.57-1.78 5.38-5.14 5.38-10v-.51C255 3.85 250.6.1 241.55.1h-22.11v36.08h8z"/></g><path id="_Tracé_transparent_6" data-name="&lt;Tracé transparent&gt;" class="cls-1" d="M281.56 6.7l6.6 15.54H274.9l6.6-15.54v.07zm0-6.5h-5l-15.35 35.9h7.89l2.9-6.81h19.11L294 36.1h7.89L286.52.2z"/><path id="_Tracé_transparent_7" data-name="&lt;Tracé transparent&gt;" class="cls-1" d="M161.19 25c0 2.82-1.71 4.5-4.58 4.5H140v-9h16.57c3 0 4.58 1.53 4.58 4.3zM140 6.34h15.75c2.66 0 4.13 1.35 4.13 3.79v.19c0 2.44-1.51 3.84-4.13 3.84H140zm23.27 10l-1.3-.41 1.29-.44a6.86 6.86 0 004.43-6.75v-.69c0-5.28-3.52-8-10.45-8h-25.05V36h25.32c8 0 11.89-3.31 11.89-10.13v-.69c0-6.23-4.26-8.24-6.1-8.82"/><path id="_Tracé_transparent_8" data-name="&lt;Tracé transparent&gt;" class="cls-1" d="M361 25.42c0 2.82-1.71 4.5-4.58 4.5H339.8v-9h16.57c3 0 4.58 1.53 4.58 4.3zM339.8 6.78h15.75c2.66 0 4.13 1.35 4.13 3.79v.19c0 2.44-1.51 3.84-4.13 3.84H339.8zm23.27 10l-1.3-.41 1.29-.44a6.86 6.86 0 004.43-6.75v-.69c0-5.28-3.52-8-10.45-8H332v35.94h25.32c8 0 11.89-3.31 11.89-10.13v-.7c0-6.23-4.26-8.24-6.1-8.82"/></g></g></svg>