<svg height="64" width="251" xmlns="http://www.w3.org/2000/svg"><title>La vie naturelle</title><path d="M59.452 0c-.118.02 1.667 2.794 3.594 8.14l.139.438c1.038 2.88 5.407 18.507-1.952 34.052a3.035 3.035 0 00-.074-.509l-.003-.012a2.411 2.411 0 00-.158-.461 2.184 2.184 0 00-.222-.375l-.018-.025a2.066 2.066 0 00-.286-.308c-.009-.008-.02-.014-.028-.023a2.127 2.127 0 00-.35-.243l-.036-.019a2.555 2.555 0 00-.41-.177l-.039-.01a3.001 3.001 0 00-.477-.11l-.03-.002a3.794 3.794 0 00-.55-.04c-.902 0-1.45.081-3.086.46l-1.074.248.596.927c.053.083.097.168.138.256.02.039.039.078.056.118-.303.06-.656.14-1.094.24l.01.018a17.56 17.56 0 00-.442.1l-1.075.248.597.927c.27.42.396.882.396 1.456 0 .733-.105 1.643-.308 2.701l-.633 3.72-.323 1.534-.182 1.004c-.09.314-.211 1.054-.38 2.328l-.035.232c-.91.975-2.201 2.34-3.235 3.325l-1.912 1.604-1.652 1.337c-3.304-.104-4.59-.131-9.46-.297 0 0 1.24-2.018 1.96-4.555.191-.499.213-.697.213-.697.573-1.852 1.031-3.749 1.444-5.608 1.578-7.464 2.196-14.483 1.83-20.27-.223-11.947-6.533-17.538-6.419-17.465-.377-.213 8.2 3.582 11.23 16.67 1.23 4.591 1.887 9.97 1.827 15.868a45.915 45.915 0 002.032-3.079 65.382 65.382 0 004.257-7.861c.943.796 2.051 1.265 3.24 1.265 1.79 0 3.397-1.049 4.52-2.708a6.494 6.494 0 001.367-1.249l.054-.07a7.978 7.978 0 00.856-1.301c.057-.107.113-.215.165-.327.05-.101.094-.206.14-.31a10.009 10.009 0 00.323-.844c.027-.087.055-.175.08-.265.044-.15.085-.3.123-.455.018-.072.037-.144.054-.217.05-.224.094-.45.13-.682.01-.06.016-.121.024-.181a9.912 9.912 0 00.082-.787c.016-.249.03-.5.03-.756 0-.281-.013-.557-.032-.83-.007-.096-.022-.19-.03-.286-.019-.174-.035-.349-.06-.52-.017-.117-.042-.23-.063-.344-.026-.145-.051-.292-.082-.433-.029-.126-.063-.248-.097-.371-.032-.125-.063-.25-.1-.373-.042-.132-.086-.26-.131-.389-.04-.106-.075-.213-.114-.317-.054-.137-.113-.268-.171-.4-.04-.089-.077-.18-.119-.265a9.12 9.12 0 00-.214-.406l-.118-.216a9.002 9.002 0 00-.255-.405c-.039-.056-.075-.114-.115-.17a7.458 7.458 0 00-.3-.396c-.035-.042-.069-.086-.104-.127a6.609 6.609 0 00-.348-.38c-.03-.031-.059-.062-.09-.09a5.834 5.834 0 00-.392-.356c-.025-.022-.05-.04-.074-.061a5.988 5.988 0 00-.438-.322l-.055-.036a5.19 5.19 0 00-.48-.278l-.039-.018a4.936 4.936 0 00-1.095-.395l-.01-.003a4.48 4.48 0 00-.582-.093c1.298-6.489 1.74-6.473 1.444-9.449l-.074-.59C60.138 3.153 59.345.005 59.452 0zm46.184 40.855c2.672 0 3.868 1.114 3.868 3.747 0 .64-.08 1.475-.16 2.274-.12.598-.239 1.355-.678 3.63l-.438 2.154c-.4 1.912-.518 3.15-.518 4.385 0 .92.04 1.637.159 2.313.12.838.32 1.277.998 2.115-1.476.996-2.074 1.237-2.992 1.237-1.516 0-2.392-1.077-2.392-2.993 0-.598.04-1.235.118-1.953.122-.758.24-1.755.44-2.992.2-1.196.318-2.034.439-2.512l.278-1.396.319-1.876.32-1.674c.04-.279.08-.757.119-1.437v-.197c0-1.157-.439-1.635-1.517-1.635-1.633 0-3.707 1.275-5.702 3.59-1.835 2.112-3.948 5.145-4.904 7.098-.878 1.833-1.436 4.028-1.436 5.902 0 .718.039.998.279 1.595-.638.36-1.196.48-2.155.48-1.276 0-1.914-.559-1.914-1.597 0-.718.2-1.953.718-4.147l.518-2.194.44-2.034.4-1.952.318-1.756.479-2.793c.198-1.275.318-2.233.318-2.83 0-.758-.16-1.317-.518-1.877 1.555-.357 2.074-.438 2.87-.438 1.317 0 1.955.56 1.955 1.758 0 .397-.158 1.353-.318 1.992l-.48 2.154-.36 1.595-.277 1.475h.04c3.948-6.58 7.219-9.21 11.366-9.21zm88.616 0c1.117 0 1.913.636 1.913 1.595 0 1.396-1.236 3.15-2.872 4.067-.44-.677-.957-.997-1.714-.997-.877 0-1.837.399-2.594 1.077-1.355 1.196-2.83 3.15-4.506 5.942-1.753 2.871-2.672 5.625-2.672 8.056 0 .757.039.997.32 1.674-.68.32-1.237.442-1.876.442-1.316 0-2.152-.72-2.152-1.916 0-.439.279-1.994.517-3.19l.281-1.156 1.236-6.184c.557-2.79.916-5.623.916-7.058 0-.358-.039-.64-.199-1.196l.638-.32c.997-.44 1.595-.599 2.195-.599 1.156 0 1.754.638 1.754 1.875 0 .319-.039.679-.12 1.036l-.36 1.477c-.04.239-.197.996-.438 2.274-.119.559-.319 1.394-.518 2.393h.04c1.994-3.35 2.712-4.388 4.188-5.983 1.795-1.955 4.306-3.31 6.023-3.31zm-135.7.237c1.276 0 1.915.599 1.915 1.757 0 .358-.12 1.235-.28 1.992l-.558 2.473-.678 3.032-.439 2.313c-.359 1.835-.558 3.47-.558 4.667 0 .718.04 1.356.2 2.034.159.917.358 1.316.997 2.11-1.476.999-2.075 1.24-2.992 1.24-1.636 0-2.393-.998-2.393-3.193 0-.556.04-1.156.12-1.713.039-.439.2-1.437.438-2.993.16-1.196.28-1.953.359-2.233l.2-1.075.319-1.517.637-3.749c.241-1.235.32-2.153.32-2.83 0-.718-.159-1.317-.519-1.876 1.556-.358 2.075-.439 2.911-.439zm-32.482 1.96s.03.04.08.115c.205-.822.36-1.39.43-1.582.215-.595.373-.788.58-.955.291-.289.913-.455 1.576-.455 1.037 0 1.7.247 2.406.913-.25.497-.456.911-.58 1.16-.5 1.12-.956 2.612-1.286 4.27l-.25 1.368c-.125.54-.248 1.41-.414 2.654-.168 1.202-.29 2.073-.333 2.612-.041.705-.123 2.197-.123 3.234 0 2.362.166 3.192 1.036 5.308-.83.746-1.37.952-2.156.952-1.949 0-3.151-1.824-3.151-4.808 0-.045.015-.956.102-2.247l-.013.037-.013.045c-.21 1.002-6.249 9.41-13.2 6.218-3.9-1.79-4.545-9.338-.026-15.835 2.978-4.282 5.925-5.709 9.275-5.877 3.715-.183 5.48 1.977 6.06 2.874zm148.71-2.276c.956 0 1.395.358 1.395 1.196 0 .28-.042.559-.12.877l-.24 1.117-.4 1.874-.238 1.277-.479 2.354c-.598 3.03-.877 5.185-.877 7.137 0 2.074.279 3.151 1.198 4.668-1.12.838-1.755 1.116-2.673 1.116-.958 0-1.836-.44-2.154-1.077-.24-.478-.358-1.475-.358-2.79v-.216c.002-.422.017-.823.118-1.78l.12-1.437.12-1.196c-1.277 2.234-1.755 2.912-3.989 5.266-2.512 2.631-4.147 3.469-6.74 3.469-2.91 0-4.946-2.073-4.946-5.064 0-.081 0-.2.04-.28.04-1.239.36-3.351.638-4.707l.439-1.992.2-1.077.557-2.594.52-2.552c.158-.877.279-1.676.279-2.033 0-.36-.04-.6-.158-1.117a6.828 6.828 0 012.391-.439c1.157 0 1.834.638 1.834 1.715 0 .757-.2 1.674-.677 3.548l-.64 2.473-.517 2.194-.119.718c-.08.36-.199.958-.36 1.874-.278 1.557-.317 2.154-.317 3.07 0 1.877.717 2.794 2.233 2.794.878 0 1.754-.28 2.552-.799 2.274-1.434 4.985-4.386 6.383-6.9.715-1.315 1.553-3.309 1.872-4.546.16-.718.32-1.714.48-2.99.079-.6.118-1.078.118-1.436 0-.399-.04-.598-.118-1.198 1.353-.399 1.992-.517 2.633-.517zm-27.452-8.535c.719 0 1.037.08 1.755.477-.878 1.197-1.157 1.675-1.716 3.072-.636 1.556-.917 2.592-1.315 4.626l-.12.6h4.506c.44 0 1-.042 1.636-.083 1.116-.079 1.395-.118 2.314-.356.04.277.04.397.04.556 0 .599-.24 1.198-.68 1.598-.676.676-1.314.796-3.47.796h-4.863c-.08.4-.122.718-.161.917-.04.4-.2 1.317-.478 2.79-.799 4.35-1.038 6.263-1.038 8.418 0 1.434.2 2.233.717 2.751.439.44 1.317.76 2.155.76.597 0 1.595-.2 2.353-.441 1.197-.438 1.636-.676 2.634-1.554.358.557.437.799.437 1.275 0 2.154-3.59 4.188-7.3 4.188-3.19 0-4.983-2.433-4.983-6.78 0-1.476.318-4.427.718-6.461l.397-2.155.44-2.473.28-1.235h-2.115c-1.278 0-2.153.16-3.548.56-.042-.28-.082-.4-.082-.56 0-.517.2-1.196.48-1.595.398-.678 1.276-.917 3.11-.917h2.633l.399-1.876c.997-5.106 2.271-6.898 4.865-6.898zm59.502 8.295c3.031 0 4.905 1.675 4.905 4.387 0 2.553-1.434 4.627-4.348 6.34-2.83 1.598-5.464 2.316-9.411 2.513 0 1.398.08 1.876.32 2.675.598 2.073 2.392 3.308 4.825 3.308 1.914 0 3.908-.636 5.824-1.834 1.077-.639 1.595-1.077 2.91-2.234.6.679.798 1.039.798 1.477 0 .318-.158.677-.4.956-.638.758-1.513 1.475-2.59 2.155-2.554 1.635-4.986 2.352-8.057 2.352-5.106 0-7.937-2.872-7.937-8.017 0-7.458 6.181-14.078 13.16-14.078zm-131.71 0c3.03 0 4.905 1.675 4.905 4.387 0 2.553-1.435 4.627-4.346 6.34-2.833 1.598-5.466 2.316-9.414 2.513 0 1.398.08 1.876.32 2.675.598 2.073 2.392 3.308 4.825 3.308 1.914 0 3.909-.636 5.823-1.834 1.077-.639 1.595-1.077 2.912-2.234.598.679.798 1.039.798 1.477 0 .318-.16.677-.398.956-.64.758-1.517 1.475-2.594 2.155-2.552 1.635-4.985 2.352-8.055 2.352-5.106 0-7.938-2.872-7.938-8.017 0-7.458 6.182-14.078 13.162-14.078zM221.729 28.49c1.237 0 1.794.598 1.794 1.915 0 .638-.12 1.236-.4 2.392-.276 1.277-.477 2.075-.517 2.314-.158.718-.358 1.634-.6 2.712l-2.91 14.755c-.358 1.837-.557 3.392-.557 4.588 0 .717.078 1.395.238 2.113.2.958.36 1.318 1.038 2.114-1.476.997-2.073 1.238-3.032 1.238-1.635 0-2.392-.998-2.392-3.193 0-.556.04-1.156.118-1.713.082-.6.2-1.558.44-2.993.278-1.873.478-2.99.518-3.308l2.712-13.601c.598-2.911.958-5.663.958-7.02 0-.438-.041-.756-.16-1.475l.638-.28c.957-.398 1.516-.558 2.114-.558zm9.668 0c1.235 0 1.795.598 1.795 1.915 0 .638-.12 1.236-.4 2.392-.279 1.277-.478 2.075-.517 2.314-.161.718-.36 1.634-.6 2.712l-2.91 14.755c-.359 1.837-.56 3.392-.56 4.588 0 .717.081 1.395.24 2.113.2.958.358 1.318 1.037 2.114-1.475.997-2.073 1.238-3.03 1.238-1.635 0-2.394-.998-2.394-3.193 0-.556.041-1.156.12-1.713.08-.6.2-1.558.439-2.993.28-1.873.479-2.99.518-3.308l2.712-13.601c.599-2.911.956-5.663.956-7.02 0-.438-.039-.756-.157-1.475l.638-.28c.957-.398 1.514-.558 2.113-.558zm13.343 12.046c3.03 0 4.904 1.675 4.904 4.387 0 2.553-1.434 4.627-4.347 6.34-2.83 1.598-5.463 2.316-9.41 2.513 0 1.398.08 1.876.318 2.675.597 2.073 2.392 3.308 4.825 3.308 1.915 0 3.91-.636 5.823-1.834 1.078-.639 1.595-1.077 2.912-2.234.597.679.799 1.039.799 1.477 0 .318-.16.677-.4.956-.638.758-1.516 1.475-2.593 2.155-2.552 1.635-4.986 2.352-8.057 2.352-5.105 0-7.937-2.872-7.937-8.017 0-7.458 6.184-14.078 13.163-14.078zM7.333 28.47c1.235 0 1.793.6 1.793 1.913 0 .638-.119 1.235-.398 2.392-.279 1.274-.479 2.07-.518 2.31-.159.717-.358 1.635-.599 2.71L4.703 52.537c-.359 1.835-.557 3.389-.557 4.584 0 .718.08 1.393.238 2.11.2.958.359 1.317 1.036 2.113-1.474.997-2.071 1.237-3.028 1.237-1.634 0-2.392-.997-2.392-3.19 0-.556.04-1.153.12-1.713.08-.596.2-1.553.438-2.989.28-1.873.48-2.987.519-3.308l2.71-13.589c.597-2.908.956-5.657.956-7.013 0-.437-.04-.757-.159-1.474l.637-.28c.957-.398 1.515-.557 2.112-.557zm122.51 14.45s.03.04.08.115c.205-.823.361-1.391.43-1.582.217-.595.372-.788.58-.955.292-.289.914-.455 1.577-.455 1.036 0 1.7.25 2.406.913-.252.497-.457.911-.58 1.16-.5 1.12-.955 2.612-1.285 4.27l-.25 1.368c-.125.54-.25 1.41-.416 2.654-.165 1.202-.29 2.073-.333 2.612-.04.705-.122 2.196-.122 3.234 0 2.362.166 3.192 1.036 5.308-.829.746-1.37.951-2.155.951-1.949 0-3.151-1.824-3.151-4.807 0-.045.015-.957.101-2.248l-.013.038-.013.045c-.21 1.002-6.25 9.413-13.2 6.218-3.898-1.79-4.545-9.338-.027-15.836 2.978-4.281 5.927-5.71 9.275-5.876 3.715-.183 5.482 1.977 6.06 2.874zM12.737 49.455c-2.82 5.362-.87 8.498.66 9.078 3.352 1.273 9.208-2.294 11.486-10.105 1.172-4.01-6.028-10.604-12.146 1.027zm103.774-.133c-2.818 5.364-.869 8.497.66 9.078 3.353 1.273 9.208-2.292 11.487-10.105 1.17-4.01-6.03-10.605-12.147 1.027zM73.604 43.05c-3.11 0-6.142 3.708-7.06 8.614 5.744-.318 9.453-2.712 9.453-6.18 0-1.596-.837-2.434-2.393-2.434zm131.712 0c-3.112 0-6.144 3.708-7.059 8.614 5.743-.318 9.45-2.712 9.45-6.18 0-1.596-.836-2.434-2.391-2.434zm37.908 0c-3.111 0-6.142 3.708-7.058 8.614 5.742-.318 9.452-2.712 9.452-6.18 0-1.596-.838-2.434-2.394-2.434zM58.878 19.384c2.96 0 5.361 3.372 5.361 7.533s-2.4 7.535-5.361 7.535-5.361-3.373-5.361-7.535 2.4-7.533 5.361-7.533z" fill-rule="evenodd"/></svg>