<svg version="1.1" id="Calque_1" xmlns="http://www.w3.org/2000/svg" x="0" y="0" viewBox="0 0 100 100" xml:space="preserve" width="100" height="100"><title>Nature et découvertes</title><style>.st1{fill:#D24D18}.st3{display:inline;fill:#000}</style><path class="st1" d="M83 7.7c.3-.6.6-3.2-.6-4.2-1-.9-5.6-2.1-6.4-1.9-.3.1-3.4 1.2-4.3 2-.6.5-5.9 5.9-8.6 8.6-2.8-2-6.5-3.5-11.3-4-6.1-.6-11 .6-13.9 1.7-1.7.6-14.6 5.2-18.7 18.4-1.8.5-3.6 1.2-4.1 2-.4.7-1 2.4-1.8 4.5-.2.6-.5 1.3-.6 1.6-.2.1-.6.2-.8.3-.9.3-1.9.5-2.3 1.1-.3.4-.4 1-.4 1.5s.1.9.1 1.1c.2.9.5 1.5.9 1.7l1 .6c.1 0 .2.2.3.4.2.2.4.5.6.7C10.8 48 10 52.5 10 57.2c0 22.4 18.3 40.6 40.8 40.6s40.8-18.2 40.8-40.6c0-15.9-9.2-29.7-22.6-36.4-.1-.7-.3-1.4-.6-2.1 2.4-1.9 7.2-5.8 7.5-5.9.3-.3 1.8-.9 2.6-1.2.7-.3 1.1-.5 1.3-.6.3-.2.6-.4.9-.7l.3-.4c.7-.5 1.5-1.3 2-2.2M72.9 84.5c.3-.7 4.3-8.3 4.4-8.9 0-.6-3-5.2-2.6-5.9.1-.2 2.9-3 2.9-3s-3.2-4.8-3.1-5.3c.1-.3 1.3-1.3 1.6-1.3.6-.1 3.9.8 4 .8.3.1 7.6-3.5 9.7-4.5.1 13-4.9 24.3-17.1 32.4.1-1.6 0-4 .2-4.3m-2.5-42.1c-.1-1.9-1.1-3.6-1.4-4-.3-.3-2.1-1-3.6-1.5.4-.7 1.8-3.4 2.4-5.4 2.3.5 5.1 1.1 5.9 2 1 1.1 2.2 3.8 2.5 4.3.3.5 1.3 1 1.9 1.5.7.5 1.2 1.3 1 1.8-.1.2-.6.9-.6 1.3v.7c-.1.3-.3.5-.7.6-.5.1-1.1.2-1.6.7-.2.2-.3.7-.7.9-.5.3-1.2-.5-2-.4-.8 0-1.9.5-2.4.4-.6-.2-.6-1.2-.7-2.9M35.6 91.7c2-1.7 7.8-6.8 7.9-7 .1-.2-2-7.5-2-7.7.1-.2 7.1-7 7.6-6.9.5.1 5.1 2 6 2.5.9.5 4.6 7.1 5.4 7.3.7.2 2.5-.6 3-.6s3.3 1.6 3.7 2.1c.4.5 2 8.7 2 9.2-12.9 6.3-25.6 4.3-33.6 1.1M23.2 63c.7-1.9 3.2-4.6 4-6.5.2-.3.1-.4 0-.9s-1.2-3.4-1.9-5.5c2.5.9 5.7 1.4 7.4 1.5 0 0 1.6 3.1 1.8 4.4.1.4.2 1 .1 1.4-.2 1.3-2 4-2.1 4.3-.2.3-.4.5-.2.9.2.6 1.6 2.5 1.4 3.4-.1.6-.6 1.6-.9 1.9-.3.3-.5.7-1.2.3-.6-.3-.9-.1-1.1-.1-.4.1-1.3.4-2 .6-.7.3-1.2-.2-1.4-.4-.2-.2-.7-.9-1-1.3-.3-.4-.8-.5-1-.6-.2 0-.5 0-.9-.2-.4-.3-.9-1-1.2-1.8-.1-.5 0-.9.2-1.4m-5.7-11.9c0-.4.2-.8.4-1.3s1.1-2.7 1.4-3.9c1.2 1.7 2.5 2.5 2.7 2.7 0 0-1.8 1.8-2.7 2.6-.1.1-.5.5-1 .7-.6.1-.9-.3-.8-.8M18.6 31c-.1.6-1.8 7.7-.6 12-.3.2-1.4.4-2.2.2-.7-.2-1.2-.3-1.6-.3-.2 0-.5 0-.7-.1-.2 0-.4-.3-.6-.6-.2-.3-.4-.5-.7-.7 0 0-.7-.4-.9-.6-.2-.3-.3-1.1-.3-1.7 0-.2 0-.4.1-.5.2-.2 1-.4 1.5-.5.9-.3 1.5-.4 1.7-.9 0-.1.1-.2.2-.4 0 0 2.4-5.6 2.6-5.7.1 0 .8-.2 1.5-.2M66 20c1.1 2.9 1.6 9-2.9 15.8-3.4 5.1-9 8.4-16.1 10.9-9.2 3.2-15.6 2.5-18.7 1.9-5.1-.9-7.7-2.9-8.8-7-.7-2.5-.4-4.1.6-10 2.6-14.8 16.7-19.8 18.3-20.4C54.8 5.9 64.2 15 66 20M81.7 6.1c0 .4 0 .7-.1.9-.4.8-1.3 1.5-1.6 1.7l-.6.5c-.2.2-.5.4-.7.6-.1.1-.6.3-1 .4-.9.4-1.8.8-2.6 1.2-1.3.6-6 3.9-7.9 5.3-.6-.8-1.3-2-2.7-3.3 1.4-1.7 4.6-5.1 6.6-7.2l1.5-1.5c.5-.5 3-1.4 3.5-1.5.7 0 4.6 1.1 5.1 1.5.4.2.5.8.5 1.4"/><path class="st1" d="M65.3 24.5l-1.7-6.1c-.2-.4-.5-.5-1-.6l-2.4-.4c-.5-.1-.4.3-.3.7l.8 4.3c.1.4.1.7.5.9l3.6 1.5c.4.4.6.1.5-.3m-1.8-2.2c-.5-.1-.9-.2-1.4-.4-.2 0-.4-.2-.4-.4-.2-.4-.4-1.1-.6-1.5-.1-.1 0-.3.2-.3h1.1c.1 0 .2.1.3.2.4.6.7 1.3 1 2.1 0 .2-.1.3-.2.3m-1.1-5.8s-6-3.9-6.2-4.1c-.3-.1-.6-.2-1-.2s-.7 0-.4.3l4.6 3.6c.3.3 1 .5 1.4.6l1.4.2c.5 0 .6-.2.2-.4m-4.1.5L53 12.2c-.3-.3-.7-.5-1-.6-.2-.1-2.1-.5-2.2-.5-.4-.1-.6 0-1 .3l-1.6 1.4c-.3.3-.6.9-.3 1.3l3.8 4.5c.3.3.7.6 1.2.7l6.3.9c.4.1.6-.2.6-.5s-.1-1.5-.2-1.8c.1-.2 0-.6-.3-.9m-3.1.2c0 .3-.2.3-.5.3-.1 0-1.2-.1-1.7-.2-.4-.1-.8-.1-1-.3l-2.3-2.2c-.2-.2-.2-.5.1-.6l.6-.4c.4-.2 1-.2 1.4 0 .5.2 1.7 1.1 2.5 1.7.3.2.5.8.7 1-.1 0 .1.4.2.7m-7.9-5.7c.2-.2.1-.3-.1-.4-.2-.2-.5-.2-.8-.2l-4.5.5c-.4 0-1.2.3-1.6.4l-.5.1c-.4.1-.5.4-.2.7l.8.6c.4.3.6.4 1 .3l2.8-.3c.4 0 1.1-.3 1.4-.6 0 .1 1.5-1 1.7-1.1m-2.2.5c-.2.1-1.2.7-1.5.7l-1.2.1c-.3 0-.8-.5-.8-.5-.2-.2.2-.3.5-.3l2.7-.3c.3-.1.5.2.3.3M39 14.3c.4-.4-.7-1.4-.7-1.4-.3-.3-.7-.2-1.1.1 0 0-4.8 2.6-5.3 2.9-.5.3-.3 1.6-.3 1.6 0 .4.3.5.8.4l3.1-.6c.4-.1.7-.3 1-.6.1.1 2.1-2 2.5-2.4m-2.3 1.2c-.3.2-.5.4-.9.6-.2.1-.4.2-.6.2-.4 0-.8.1-1.2.1-.2 0-.3 0-.3-.1v-.4c0-.1.2-.2.3-.3.7-.3 1.4-.6 2.1-.8.2 0 .3-.1.4 0l.4.4c.1.1 0 .2-.2.3m-4.4 3.9c-.4 0-1 .4-1.2.8l-1.8 2.7c-.2.4-.3 1-.2 1.4l1.4 5.1c.1.4.6.8 1 .9l3.1.4c.4.1 1-.2 1.2-.6l2.7-4.1c.2-.4.3-1 .1-1.4l-2.5-4.9c-.2-.4-.7-.7-1.1-.7l-2.7.4zm-.1 3c.2-.2.5-.3.7-.3.4 0 .8 0 1.2.1.2 0 .5.2.5.3.2.7.4 1.4.7 2.3.1.2-.1.6-.3.8l-1.2 1.2c-.2.2-.6.3-.9.3-.4-.1-.7-.2-1.1-.3-.3-.1-.5-.3-.5-.6-.1-.9-.2-1.7-.2-2.5 0-.2.1-.4.3-.6.2-.2.5-.5.8-.7m-2.1-2.8c.3-.4.4-.9.4-1.3 0-.3 0-.7-.2-.9-.2-.2-.4 0-.6.2-.6.6-4.1 4.6-4.3 4.8-.2.2-.2.5.2.5 0 0 1.2-.1 1.7-.1.5-.1.7-.3 1-.6l1.8-2.6zm-1.5.9c-.1.1-.7 1-.8 1.1-.2.1-.7.1-.7.1-.2 0-.3-.1-.2-.2l1.6-1.8c.1-.2.2 0 .2.2v.1c.1 0 0 .3-.1.5m-1.8 4.1l-1.8-.3c-.4 0-.9.2-1.1.7L22 29.6c-.2.4-.2 1.1 0 1.5l1 2.8c.1.4.5 1 .9 1.3 0 0 1.1 1.1 1.6 1.5.5.4.7.1 1-.2.2-.3 2.1-3.9 2.1-3.9.2-.4.3-1.1.2-1.5l-1.2-5.7c-.3-.5-.3-.7-.8-.8m-.3 6.4l-.1.8c-.1.3-.2.7-.5.8l-.5.2c-.3.1-.6 0-.7-.3l-1.1-2.2c-.1-.3-.1-.7.1-1l.9-1.7c.1-.3.5-.3.7-.2l.3.2c.2.2.5.5.6.8l.4 1.5c0 .4 0 .8-.1 1.1m-2.3 7l-2.7-4c-.3-.6-.6-.3-.6.2l-.5 4.1c0 .4.1 1.1.2 1.6.1.4.4 1.4.9 2.2.7 1.3 1.5 2.3 1.6 2.4.3.3.7.1.7-.3.1-.6.8-4.7.8-4.7 0-.4-.2-1.1-.4-1.5m-1 1.4l-.5 1.6c0 .1-.1.2-.2.1l-1-2c-.1-.2.2-1.9.2-1.9 0-.2.2-.2.3 0l1.3 1.6c-.1.1 0 .4-.1.6m2.5 1.5l-.4 4.1c-.1.6.4 1.2.9 1.3 0 0 4.9 1.1 5.4 1.2.6.1.7-.1.8-.5.1-.4 1-5.2 1-5.2.1-.6-.3-1.1-.9-1.1l-5.8-.4c-.5-.1-.9.2-1 .6m1.7 2.8c.1-.5.2-1 .4-1.6.1-.2.3-.3.4-.2.7.2 1.5.4 2.5.6.3.1.4.3.3.5-.3.7-.5 1.3-.7 1.9 0 .2-.3.3-.5.2-.9-.3-1.6-.6-2.2-1-.1-.1-.2-.3-.2-.4m7.3-4.8c.5-.3 1.4-.9 1.9-1.2.5-.3.6-.6.4-1L35 33c-.2-.4-.8-.8-1.2-.8l-3.1-.2c-.5 0-.9.3-1.1.7L28 38c-.1.4.1.8.6.9l4.5.3c.5 0 1 0 1.6-.3m-1.2-2.2l-.2.1c-.3.1-.7.2-1 .1h-2c-.2 0-.3-.2-.3-.4.2-.6.4-1.2.6-1.9.1-.3.4-.4.6-.4.4 0 .7.1 1.1.1.3 0 .6.2.7.5.2.4.5.9.7 1.3.2.2.1.5-.2.6m1.3 10c-.1.6.3 1 .9.8l9.4-2.1c.6-.1 1-.3.9-.9l-1.6-6.1c-.1-.6-.6-.9-1.2-.7 0 0-6.2 2.1-6.4 2.2-.2.1-1 .3-1.1.8 0 .5-.9 6-.9 6m3-2.9c.1-.6.4-1.2.6-1.9.1-.2.4-.4.6-.5.8-.1 1.6-.3 2.4-.5.3-.1.6.1.6.3.1.6.1 1.2.2 1.8 0 .2-.2.5-.5.5-1.3.3-2.5.4-3.6.5-.2.1-.3 0-.3-.2m8.4-6.6s1.7 5.1 1.9 5.9c.2.8.5.8 1 .6.5-.2 9.4-5.7 9.4-5.7.5-.3.6-1 .3-1.5L56.2 33c-.4-.5-1.1-.7-1.7-.4 0 0-7.4 3.3-8 3.6-.4.3-.4.4-.3 1m4-.4c.9-.5 1.7-1.1 2.5-1.6.3-.2.6-.2.8 0 .5.4 1 .8 1.4 1.2.2.1.1.4-.1.6-1.1.9-2.3 1.8-3.7 2.6-.3.2-.6.1-.6-.1-.2-.6-.5-1.3-.7-2 0-.1.2-.5.4-.7m-.8-12.9c-.4.6-.3.6-.1 1.1.2.4 2.5 5.1 2.5 5.1.2.4.3.5 1 .7.7.2 1.4.3 1.7.3.4 0 .8-.5 1.1-.8.2-.3 3.7-6.2 3.8-6.5.1-.2.2-.4 0-.8-.1-.2-.6-1-.9-1.3-.3-.3-.9-.4-1.4-.4l-4.7-.3c-.5 0-.8 0-1.1.3l-1.9 2.6zm2.9 1c.2-.3.4-.5.5-.7.1-.2.5-.3.7-.3.8 0 1.5.1 2.2.2.2 0 .4.2.4.4v.1c0 .2-.1.5-.2.6-.4.5-.8 1.1-1.2 1.7-.1.2-.4.5-.7.5-.2.1-.7 0-.8-.2-.4-.6-.7-1.2-1-1.8-.1 0-.1-.3.1-.5m-11.8 1.5l-3.1 4.3c-.3.4-.3 1-.1 1.4l1.5 3.2c.2.4 1 1.4 2.3.9l8.6-3.6c.4-.2.6-.6.4-1l-2.7-4.9c-.2-.4-.7-.7-1.2-.8l-4.6-.2c-.3.1-.9.4-1.1.7m.3 4.3c.3-.4.5-.9.8-1.3.2-.2.5-.4.8-.4H44c.3 0 .6.2.8.4.3.5.7 1.1 1 1.7.1.2 0 .5-.3.6-1.1.5-2.3.9-3.4 1.3-.3.1-.6 0-.7-.2l-.6-1.2c-.1-.3-.1-.7 0-.9m-3-12.5l2.8 5.1c.2.4.7.7 1.2.8 0 0 4 .2 4.4.2.4 0 .7-.2.9-.5l2-2.6c.3-.3.3-.9 0-1.2l-3.9-4.9c-.3-.3-.9-.6-1.3-.6l-2.7.1c-.4 0-1 .3-1.3.6l-2 1.8c-.2.2-.3.8-.1 1.2m2.8-.2c.2-.3.4-.6.6-.8.1-.2.4-.3.7-.4.4-.1.7-.2 1.1-.3.3-.1.6 0 .7.1.7.5 1.4 1.1 2.1 1.9.2.2.2.5.1.7-.2.3-.4.7-.6 1.1-.1.3-.5.5-.9.5-.5 0-1 .1-1.5.2-.3 0-.7-.1-.9-.3-.6-.8-1.1-1.4-1.6-2 0-.2 0-.5.2-.7m17.1 13.9l2.8 3c.4.4.9.3 1.2-.2l3.1-6.8c.2-.5.3-1-.2-1.3L62 25.4c-.5-.3-1.5-.1-1.7.3l-2.8 4.8c-.4.8-.2 1 .2 1.4m1.8-2c.3-.6.6-1.3.9-1.8.1-.2.3-.3.5-.3.5.1 1 .2 1.4.4.1 0 .2.2.2.4-.2.9-.6 1.9-1 3-.1.2-.3.3-.5.2-.4-.4-.9-.7-1.4-1.1-.1-.2-.2-.5-.1-.8M77.5 5.6c-.2-.5-.8-.3-1.4 0-.5.4-1.1 1-.9 1.5.3.4 1.7.1 2-.1.6-.3.4-1.1.3-1.4"/></svg>