<?xml version="1.0" standalone="no"?>
<!DOCTYPE svg PUBLIC "-//W3C//DTD SVG 20010904//EN"
 "http://www.w3.org/TR/2001/REC-SVG-20010904/DTD/svg10.dtd">
<svg version="1.0" xmlns="http://www.w3.org/2000/svg"
 width="1241.000000pt" height="356.000000pt" viewBox="0 0 1241.000000 356.000000"
 preserveAspectRatio="xMidYMid meet">

<g transform="translate(0.000000,356.000000) scale(0.100000,-0.100000)"
fill="#000000" stroke="none">
<path d="M990 1995 l0 -635 125 0 125 0 0 635 0 635 -125 0 -125 0 0 -635z"/>
<path d="M1740 2242 c-208 -54 -331 -242 -317 -482 8 -148 68 -264 173 -335
76 -52 149 -76 254 -82 175 -10 320 52 407 174 18 26 33 50 33 53 0 8 -190 94
-194 88 -1 -2 -13 -18 -26 -37 -57 -83 -219 -108 -309 -48 -40 26 -91 107 -91
145 0 9 70 12 315 12 l315 0 0 68 c0 88 -22 187 -55 252 -84 166 -296 247
-505 192z m204 -176 c56 -23 85 -61 101 -133 l7 -33 -192 0 -192 0 7 33 c14
64 54 115 105 136 37 14 126 13 164 -3z"/>
<path d="M3160 2246 c-101 -28 -192 -102 -239 -194 -90 -177 -59 -429 69 -561
124 -128 376 -150 500 -44 l40 35 0 -59 c-1 -161 -59 -228 -195 -227 -91 1
-148 28 -166 79 l-13 35 -128 0 c-127 0 -128 0 -128 -23 0 -55 34 -122 90
-179 81 -81 154 -103 340 -103 116 0 145 3 203 23 83 29 142 72 184 136 57 84
57 82 61 599 l3 478 -128 -3 -128 -3 -6 -40 c-3 -22 -7 -35 -8 -29 -2 20 -79
64 -138 79 -68 18 -151 18 -213 1z m258 -210 c86 -45 128 -164 103 -287 -13
-60 -54 -120 -100 -143 -100 -52 -218 -11 -263 92 -22 50 -27 178 -8 227 18
46 59 96 94 111 41 17 140 18 174 0z"/>
<path d="M4422 2245 c-57 -18 -108 -58 -143 -113 l-29 -46 0 77 0 78 -117 -3
-118 -3 0 -435 0 -435 128 -3 127 -3 0 224 c0 265 8 308 74 373 42 43 93 64
154 64 l32 0 0 120 0 120 -32 -1 c-18 0 -52 -6 -76 -14z"/>
<path d="M4935 2250 c-152 -33 -243 -109 -279 -229 -9 -30 -16 -58 -16 -63 0
-4 59 -8 130 -8 111 0 130 2 130 15 0 30 30 75 62 91 36 19 135 21 167 5 29
-16 51 -63 51 -109 l0 -39 -132 -18 c-280 -37 -396 -104 -429 -249 -10 -44 -9
-62 5 -110 18 -62 69 -127 120 -153 130 -67 325 -51 415 35 l40 38 6 -48 7
-48 130 0 c120 0 130 1 122 18 -4 9 -11 152 -15 317 -4 181 -12 316 -19 340
-44 148 -148 214 -350 221 -58 2 -123 -1 -145 -6z m255 -543 c0 -51 -34 -123
-71 -150 -54 -39 -154 -44 -206 -10 -57 37 -45 131 21 158 37 16 172 42 224
44 31 1 32 0 32 -42z"/>
<path d="M6070 2247 c-56 -16 -113 -50 -140 -84 l-20 -26 0 52 0 51 -120 0
-120 0 0 -440 0 -440 125 0 125 0 0 268 c0 158 4 283 11 305 6 22 25 55 43 74
27 30 41 36 84 41 62 5 104 -10 129 -47 16 -23 19 -59 23 -331 l5 -305 128 -3
127 -3 0 283 c0 257 2 287 20 325 25 56 70 83 136 83 38 0 59 -6 79 -22 52
-41 55 -62 55 -378 l0 -291 128 3 127 3 0 330 c-1 321 -1 332 -24 388 -42 107
-124 163 -250 174 -110 9 -211 -22 -286 -89 l-36 -31 -29 35 c-58 70 -211 106
-320 75z"/>
<path d="M7624 2240 c-43 -14 -74 -33 -103 -61 l-41 -41 0 51 0 51 -120 0
-120 0 0 -440 0 -440 124 0 124 0 4 283 c3 258 5 285 23 322 52 103 201 117
252 22 16 -28 18 -68 21 -329 l3 -298 124 0 124 0 3 293 c3 286 3 293 26 330
30 47 68 67 126 67 55 0 90 -15 113 -49 16 -23 19 -61 23 -331 l5 -305 128 -3
127 -3 0 320 c0 362 -7 409 -74 487 -55 64 -121 88 -236 88 -114 0 -188 -25
-248 -83 l-39 -38 -31 38 c-68 80 -213 110 -338 69z"/>
<path d="M9085 2247 c-193 -50 -312 -196 -331 -409 -27 -305 187 -516 501
-495 139 10 254 67 326 162 21 28 39 57 39 62 0 6 -44 30 -97 53 -75 33 -98
40 -101 29 -9 -28 -82 -88 -119 -98 -139 -39 -268 27 -297 152 l-6 27 316 0
317 0 -6 103 c-3 66 -12 123 -26 162 -40 114 -134 207 -244 241 -70 21 -209
27 -272 11z m204 -187 c44 -22 76 -68 86 -122 l7 -38 -191 0 -191 0 6 28 c13
53 49 106 89 129 52 30 140 31 194 3z"/>
<path d="M10500 1800 l0 -440 435 0 435 0 0 440 0 440 -435 0 -435 0 0 -440z"/>
</g>
</svg>
