<svg xmlns="http://www.w3.org/2000/svg" viewBox="0 0 508 76" width="220"><title>Monoprix</title><path d="M51.6 8.9l-18.3 42-20.4-42H0v2.4c2.7 0 5.9.9 5.9 5v47.4h4.7V23l19.8 40.7h2.4l19.7-44.9v44.9h8.2V8.9h-9.1m125.6 0v39.8l-34-39.8h-12.4v2.4c2.7 0 5.9.9 5.9 5v47.4h4.7V19.3l39 45.7h1.5V8.9h-4.7M98.6 7.5c-15.9 0-28.8 12.9-28.8 28.8C69.8 52.1 82.7 65 98.6 65s28.8-12.9 28.8-28.8S114.5 7.5 98.6 7.5m-.1 54.3c-11 0-19.9-8.6-19.9-25.5s8.9-25.5 19.9-25.5c11 0 19.9 8.6 19.9 25.5s-8.9 25.5-19.9 25.5m121-54.3c-15.9 0-28.8 12.9-28.8 28.8s12.9 28.8 28.8 28.8 28.8-12.9 28.8-28.8c.1-16-12.8-28.8-28.8-28.8m-.1 54.3c-11 0-19.9-8.6-19.9-25.5s8.9-25.5 19.9-25.5c11 0 19.9 8.6 19.9 25.5s-8.9 25.5-19.9 25.5m55.1-52.9h-22.9v2.4c2.7 0 5.9.9 5.9 5v47.4h8.2V39.2c3.8.6 6.7.8 9 .6 9.2-.4 17.5-6.1 17.5-15.5.1-9.7-8.1-15.4-17.7-15.4M271 36.4c-1.9 0-3.7-.2-5.3-.7V15.5c0-2.5-.3-2.8-.7-3.4h6c7 0 12.6 3.5 12.6 12 0 9.3-5.7 12.3-12.6 12.3m76.4-25.1c2.7 0 5.9.9 5.9 5v47.4h8.2V8.9h-14.1v2.4m51.1 22.8l18.8-25.3h-5.8L395.7 30 381.2 8.9h-11.9v2.4c1.8 0 3.8.3 5.1 2.1L390.5 37l-19.8 26.7h5.8l16.8-22.6 15.4 22.6h10l-20.2-29.6m-73.6 2.7c6-1.7 12.1-6 12.1-13.4 0-9.6-7.9-14.5-17.7-14.5h-23v2.4c2.7 0 5.9.9 5.9 5v47.4h8.1V38.1c1.1.1 2.3.1 3.4.2 2.3.2 6.3-.3 10.7 7.4 1.7 3 9.4 16.9 10.1 18.1h9.6s-8.5-14.9-10.3-17.9c-2.1-3.7-4.8-7.6-8.9-9.1m-9.2-1.8c-1.9 0-3.9-.1-5.4-.3V15.4c0-2.5-.5-2.8-.7-3.2h6.1c7 0 12.6 2.7 12.6 11.3 0 8.4-5.7 11.5-12.6 11.5m156.9-5.2h-8.2v33.9H456V29.8h-6.2v-2.9h6.2c0-8.9 7.8-17.7 17.3-17.7 4 0 7.3 1.8 7.3 6.2 0 2.8-2.1 4.8-4.8 4.8-2.3 0-4.2-1.6-4.2-4.3 0-1.8 1-2.6 1-3.3 0-.6-.5-.9-1.3-.9-2.8 0-7.1 2.1-7.1 13.8V27h8.2v2.8m18.2 2.1c2-3.6 5-5.9 9.5-5.9 3.6 0 6.9 1.9 6.9 6.2 0 2.7-2 4.9-4.6 4.9-2.5 0-4.4-1.6-4.4-4.5 0-1.9.9-2.3.9-3.2 0-.4-.4-.8-1.1-.8-4.3 0-7.1 7.5-7.1 13.4v21.6h-8.3V33.2c0-3.5-2.7-4.3-5-4.3v-2h13.2v5m-53.3 27.3c2.5 0 4.6 2 4.6 4.5 0 2.4-2.1 4.5-4.6 4.5-2.4 0-4.4-2-4.4-4.5s2-4.5 4.4-4.5" fill="#e1251b"/></svg>