<svg version="1.1" id="Layer_1" xmlns="http://www.w3.org/2000/svg" x="0" y="0" viewBox="0 0 191 47.7" xml:space="preserve"><style>.st1{fill:#231f20}</style><g id="Layer_1-2"><path d="M6.3 6.8v.7h.2c.9.1 1.6.8 1.7 1.7v27.3c0 2.1 1.7 3.7 3.8 3.6h.1c2.1.1 3.9-1.5 4-3.6V9.6c-.1-.9.6-1.6 1.5-1.6s1.6.7 1.6 1.7v26.8c.1 2.1 1.8 3.7 3.9 3.6 2.1.1 3.8-1.5 3.9-3.5v-27c.1-.9.8-1.6 1.7-1.6.9 0 1.6.7 1.6 1.7v26.8c.1 2.1 1.8 3.7 3.9 3.6 2.1.1 3.8-1.5 3.9-3.5V9.1c0-.9.7-1.7 1.7-1.7h.3v-.6H6.3z" fill="#00bce7"/><path class="st1" d="M185.4 18h.9c.8 0 1.4 0 1.4-.9s-.6-.8-1.2-.8h-1.1V18zm-.8-2.4h2.1c1.3 0 1.9.5 1.9 1.5 0 .8-.5 1.4-1.3 1.4h-.1l1.5 2.4h-.9l-1.5-2.3h-.9V21h-.8v-5.4zm1.8 6.6c2.1 0 3.8-1.7 3.8-3.7v-.2c.1-2.1-1.5-3.9-3.6-4s-3.9 1.5-4 3.6v.4c-.1 2.1 1.6 3.8 3.7 3.9h.1m0-8.4c2.5 0 4.5 2.1 4.5 4.6s-2.1 4.5-4.6 4.5-4.5-2.1-4.5-4.6c0-2.5 2-4.6 4.6-4.5-.1-.1 0-.1 0 0M41.2 0c2.7 0 5 2.2 5 4.9v35.8c0 2.7-2.3 4.9-5 4.9H5c-2.7 0-5-2.2-5-4.9V4.9C0 2.2 2.3 0 5 0h36.2zM4.9 1.8c-1.7 0-3 1.3-3 3v36c0 1.7 1.3 3 3 3h36.5c1.7 0 3-1.3 3-3v-36c0-1.7-1.3-3-3-3H4.9zm152.6 37.6h6.5V27c0-4.8 1.5-6.8 5.1-6.8 3 0 4.2 1.9 4.2 5.8v13.4h6.6V24.9c0-5.8-1.8-9.7-8.7-9.7-2.9 0-5.7 1.4-7.3 3.9h-.1v-3.3h-6.2l-.1 23.6zm-37.2 0h6.6V6.8h-6.6v32.6zm-2.9-23.6h-6.8L105.4 32h-.1l-5.4-16.2h-7l8.4 22.2c.7 1.9 0 4.2-2.3 4.4-1.3 0-2.6-.1-3.8-.2v5.3c1.3.1 2.7.2 4 .2 4.5 0 6.8-1.5 8.2-5.3l10-26.6zM54 6.8h10.3L72 29.2h.1l7.3-22.4h10.2v32.6h-6.8V16.3h-.1l-8.1 23.1H69l-8.1-22.9h-.1v22.9H54V6.8z"/></g><path d="M54 6.2h10.2L72 28.9h.1l7.3-22.7h10.2v33h-6.8V15.8h-.1l-8.1 23.4H69L60.9 16h-.1v23.2H54v-33zm63.4 9.1h-6.8l-5.2 16.4h-.1l-5.4-16.4h-7l8.4 22.4c.7 1.9 0 4.3-2.3 4.5-1.3 0-2.6-.1-3.8-.2v5.4c1.3.1 2.7.2 4 .2 4.5 0 6.8-1.6 8.2-5.4l10-26.9zm2.9 23.9h6.6v-33h-6.6v33zm26.1-9.2c0 1.4-.2 5.5-5.3 5.5-2.1 0-4-.6-4-3.1 0-2.4 1.9-3.1 3.9-3.5 2-.4 4.3-.4 5.5-1.4V30zm-8.6-7.4c.2-2.6 1.8-3.6 4.4-3.6 2.3 0 4.3.4 4.3 3.2 0 2.7-3.7 2.5-7.8 3.1-4.1.6-8.1 1.8-8.1 7.3 0 4.9 3.6 7.2 8.1 7.2 2.9 0 6-.8 8.1-3 0 .8.2 1.6.5 2.3h6.7c-.6-1-.8-3.1-.8-5.3V21.4c0-5.7-5.7-6.8-10.5-6.8-5.4 0-10.9 1.8-11.2 8h6.3zm19.7 16.6h6.6V26.7c0-4.9 1.5-6.8 5.1-6.8 3.1 0 4.2 1.9 4.2 5.9v13.5h6.6V24.5c0-5.9-1.8-9.9-8.7-9.9-2.8 0-5.6 1.3-7.3 4h-.1v-3.3h-6.2v23.9zM4.9 1.1c-1.7 0-3 1.3-3 3v36.5c0 1.7 1.3 3 3 3h36.5c1.6 0 3-1.3 3-3V4.1c0-1.6-1.3-3-3-3H4.9M41.2-.7c2.7 0 5 2.2 5 5v36.2c0 2.7-2.2 5-5 5H5c-2.7 0-5-2.2-5-5V4.3c0-2.7 2.2-5 5-5h36.2"/></svg>