<svg version="1.1" id="Capa_1" xmlns="http://www.w3.org/2000/svg" x="0" y="0" viewBox="0 0 512 512" xml:space="preserve" width="30" height="30"><style>.st0{fill:#fe0100}</style><path class="st0" d="M492.4 122.5c-19.6-27-54.1-51.4-96.9-68.7-42.6-17.2-92.1-26.7-139.3-26.7-47.2-.1-96.7 9.3-139.3 26.3C74 70.6 39.5 94.9 19.8 121.8.8 147.7-4.6 175.7 4 202.6c5.6 17.5 21.9 29.2 40.6 29.2l64 .1h.1c12.8 0 24.7-5.6 32.9-15.3 8.1-9.6 11.4-22.2 9.2-34.5-.1-.4-.1-.7-.2-1.1l-3.4-13.1c18.6-8.9 60.9-26.1 109.1-25.8 48.2.2 90.4 17.4 109 26.3l-3.4 13c-.1.4-.2.7-.2 1.1-2.3 12.3 1 24.9 9.1 34.6 8.1 9.8 20.1 15.4 32.9 15.4l64 .1h.1c18.6 0 34.9-11.7 40.6-29.1 8.3-27 2.9-55-16-81z"/><path class="st0" d="M400.6 279.8l-47.7-50.1c-2.9-3-6.9-4.7-11.1-4.7H311v-20.8c0-8.4-6.8-15.3-15.3-15.3-8.4 0-15.3 6.8-15.3 15.3V225h-48.9v-20.8c0-8.4-6.8-15.3-15.3-15.3s-15.3 6.8-15.3 15.3V225h-30.8c-4.2 0-8.2 1.7-11.1 4.7l-47.7 50.1c-37.4 39.3-58 90.7-58 145v62.9c0 8.4 6.8 15.3 15.3 15.3h374.6c8.4 0 15.3-6.8 15.3-15.3v-62.9c.1-54.2-20.5-105.7-57.9-145zM256 447.1c-44.1 0-80-35.9-80-80s35.9-80 80-80 80 35.9 80 80-35.9 80-80 80z"/><path class="st0" d="M256 317.7c-27.2 0-49.4 22.2-49.4 49.4s22.2 49.4 49.4 49.4 49.4-22.2 49.4-49.4-22.2-49.4-49.4-49.4z"/></svg>