
<svg version="1.0" xmlns="http://www.w3.org/2000/svg"
 width="709.000000pt" height="684.000000pt" viewBox="0 0 709.000000 684.000000"
 preserveAspectRatio="xMidYMid meet">
<title>Certification Volaire</title>
<g transform="translate(0.000000,684.000000) scale(0.100000,-0.100000)"
fill="#000000" stroke="none">
<path d="M3180 6514 c-440 -55 -696 -127 -1025 -289 -483 -238 -867 -579
-1177 -1045 -459 -690 -625 -1535 -468 -2370 118 -627 428 -1207 879 -1649
624 -610 1478 -915 2316 -826 149 16 405 61 418 74 8 8 -50 158 -150 391 -8
19 -38 94 -67 165 -59 150 -35 137 -221 111 -212 -29 -491 -19 -705 25 -206
42 -349 90 -536 180 -453 219 -837 597 -1068 1052 -358 707 -362 1546 -10
2248 333 664 935 1125 1644 1258 399 74 819 35 1200 -112 202 -78 376 -175
558 -312 106 -79 301 -264 379 -359 l41 -49 233 120 c287 148 332 172 343 183
17 17 -96 153 -299 356 -240 241 -466 403 -770 554 -205 101 -374 165 -573
215 -253 63 -358 76 -647 80 -143 2 -276 1 -295 -1z"/>
<path d="M3160 5434 c-521 -71 -1014 -385 -1315 -839 -155 -233 -247 -454
-304 -730 -33 -160 -41 -245 -41 -428 0 -464 151 -900 436 -1262 305 -388 729
-635 1219 -711 108 -16 375 -18 500 -3 280 33 583 152 834 326 96 67 249 202
317 280 32 38 61 70 64 73 3 3 27 33 53 67 199 261 348 625 392 957 17 128 20
414 5 536 -38 301 -141 594 -299 844 -56 89 -128 190 -164 228 -219 239 -383
368 -612 481 -341 168 -715 231 -1085 181z m1047 -581 c3 -6 -15 -24 -39 -39
-184 -118 -289 -298 -383 -659 -102 -392 -147 -808 -175 -1645 -15 -439 -20
-484 -56 -522 -26 -27 -34 -29 -81 -26 -77 7 -114 39 -167 151 -45 92 -112
289 -160 467 -14 52 -33 120 -41 150 -8 30 -44 172 -79 315 -102 415 -210 708
-283 771 -118 101 -312 -58 -377 -310 -38 -145 -29 -405 17 -525 45 -116 124
-171 183 -126 25 19 60 19 68 0 8 -22 -10 -63 -31 -68 -58 -16 -80 -16 -131
-2 -154 45 -233 242 -219 549 13 292 108 481 285 568 116 58 233 33 319 -67
71 -83 166 -321 244 -615 17 -63 50 -189 74 -280 79 -298 86 -324 115 -425 75
-257 133 -407 175 -454 61 -66 61 -62 69 326 21 1090 90 1632 263 2063 50 125
108 216 191 298 96 96 205 148 219 105z"/>
<path d="M5905 4979 c-16 -10 -34 -20 -39 -22 -4 -1 12 -44 38 -95 25 -50 46
-96 46 -102 0 -8 -109 -70 -124 -70 -2 0 -24 40 -48 90 -24 49 -49 89 -57 90
-18 0 -81 -39 -81 -51 0 -5 18 -45 40 -89 22 -44 40 -85 40 -93 0 -11 -108
-72 -115 -65 -2 2 -24 45 -50 96 -25 50 -48 92 -49 92 -2 0 -24 -12 -49 -26
l-46 -25 74 -150 c41 -82 80 -149 86 -149 10 0 323 167 470 252 l67 37 -76
151 c-42 82 -81 150 -86 149 -6 0 -24 -9 -41 -20z"/>
<path d="M6155 4230 c-50 -49 -93 -90 -96 -90 -3 0 -11 11 -17 25 -32 70 -182
87 -264 29 -65 -46 -83 -85 -81 -174 3 -97 45 -276 64 -273 16 2 377 84 492
112 43 10 80 21 83 24 7 7 -5 90 -15 106 -6 9 -35 6 -122 -15 -63 -14 -170
-39 -238 -55 -77 -18 -129 -25 -134 -20 -5 5 -12 42 -15 81 -4 67 -3 73 23
100 58 61 149 44 179 -33 9 -24 16 -48 16 -55 0 -24 20 -11 102 66 46 43 97
92 115 108 32 29 32 29 21 84 -6 30 -14 58 -17 62 -4 4 -47 -33 -96 -82z"/>
<path d="M5760 3397 l0 -67 295 0 c162 0 298 -1 303 -2 4 -2 8 25 10 60 l3 62
-184 0 c-101 0 -239 3 -305 7 l-122 6 0 -66z"/>
<path d="M6110 3020 c-129 -21 -269 -44 -310 -50 -41 -6 -78 -14 -82 -18 -4
-4 -10 -29 -13 -57 l-6 -50 63 -43 c35 -24 155 -108 268 -187 112 -79 208
-142 211 -139 4 2 10 25 14 50 3 26 9 52 11 59 3 6 -19 29 -49 49 l-54 37 12
62 c7 34 18 88 25 119 l11 57 63 6 63 7 12 50 c13 57 14 88 4 87 -5 -1 -114
-18 -243 -39z m-10 -142 c-1 -43 -26 -143 -35 -143 -13 0 -204 118 -205 126 0
4 46 12 103 19 56 6 107 13 112 15 21 7 25 4 25 -17z"/>
<path d="M5617 2573 c-3 -5 -24 -53 -47 -108 -23 -55 -55 -128 -71 -163 -16
-34 -29 -65 -29 -67 0 -6 77 -45 89 -45 5 0 21 25 35 55 27 59 28 60 54 45 65
-38 418 -200 427 -196 6 2 21 26 32 53 l20 49 -223 109 c-153 74 -224 113
-224 124 0 9 9 36 20 60 11 24 20 44 20 46 0 5 -80 45 -90 45 -5 0 -11 -3 -13
-7z"/>
<path d="M5301 1976 c-17 -24 -31 -47 -31 -49 0 -2 48 -39 108 -82 156 -115
228 -167 312 -229 41 -31 77 -56 80 -56 3 0 44 60 92 133 l88 132 -28 23 c-58
49 -57 49 -114 -38 -29 -44 -55 -80 -58 -80 -5 0 -83 56 -285 203 -59 43 -113
81 -120 83 -8 3 -26 -13 -44 -40z"/>
<path d="M5058 1660 c-80 -24 -165 -108 -198 -196 -46 -122 -13 -262 86 -361
64 -63 122 -87 214 -87 95 0 152 24 220 94 81 83 111 215 73 326 -33 99 -116
190 -201 218 -48 17 -149 20 -194 6z m184 -139 c73 -47 108 -111 108 -203 0
-81 -40 -142 -113 -173 -53 -22 -103 -19 -157 11 -92 50 -146 165 -121 256 24
86 89 137 177 137 50 1 68 -4 106 -28z"/>
<path d="M4605 1318 c-22 -11 -41 -22 -43 -23 -4 -3 45 -422 54 -469 4 -16 2
-27 -3 -25 -6 2 -50 49 -98 104 -49 55 -116 131 -149 168 -34 38 -64 74 -67
79 -10 16 -122 -40 -112 -55 3 -7 32 -39 63 -72 132 -140 221 -235 290 -310
41 -44 79 -83 84 -87 5 -3 34 6 63 20 48 24 54 30 50 52 -3 14 -17 153 -32
310 -15 157 -29 295 -31 308 -5 27 -17 27 -69 0z"/>
</g>
</svg>
